<svg xmlns="http://www.w3.org/2000/svg" width="30" height="30" viewBox="0 0 30 30">
    <g fill="none" fill-rule="evenodd">
        <g fill-rule="nonzero" stroke="#3DB370" stroke-width="2">
            <g>
                <g>
                    <path d="M27.25 7.731c0-3.85-3.131-6.981-6.98-6.981-2.7 0-5.118 1.572-6.27 3.912C12.848 2.322 10.43.75 7.73.75 3.882.75.75 3.881.75 7.731c0 2.697 1.518 5.075 3.841 6.235C2.268 15.126.75 17.503.75 20.2c0 3.85 3.131 6.981 6.98 6.981 2.7 0 5.118-1.572 6.27-3.912 1.152 2.34 3.57 3.912 6.27 3.912 3.849 0 6.98-3.131 6.98-6.98 0-2.698-1.518-5.076-3.841-6.235 2.323-1.16 3.841-3.538 3.841-6.235z" transform="translate(-152 -40) translate(153 33) translate(0 8)"/>
                </g>
            </g>
        </g>
    </g>
</svg>
