<svg id="Слой_1" data-name="Слой 1" xmlns="http://www.w3.org/2000/svg" viewBox="0 0 120 120">
  <defs>
    <style>
      .cls-1 {
        fill: #1967fa;
      }

      .cls-2 {
        fill: #fff;
      }
    </style>
  </defs>
  <title>icon-solid-reusable-components</title>
  <rect class="cls-1" width="120" height="120"/>
  <path class="cls-2" d="M80,63.24a.56.56,0,0,0-.29-.49l-9.43-5.3,0-9.34a.56.56,0,0,0-.29-.49l-9.74-5.47a.6.6,0,0,0-.58,0L50,47.62a.55.55,0,0,0-.29.49l0,9.33-9.38,5.3a.58.58,0,0,0-.29.5l0,9.66a.56.56,0,0,0,.29.49L50,78.86a.57.57,0,0,0,.58,0l4.48-2.53a.56.56,0,0,0,.21-.78.6.6,0,0,0-.8-.21l-3.59,2,0-8.34,8.49-4.8,0,8.34L57,73.94a.56.56,0,0,0-.21.78.59.59,0,0,0,.8.2L60,73.56l9.44,5.3a.57.57,0,0,0,.58,0l9.67-5.47A.55.55,0,0,0,80,72.9V69.64a.58.58,0,0,0-.58-.57h0a.58.58,0,0,0-.59.57v2.93l-8.49,4.81,0-8.35,8.5-4.8V67a.58.58,0,0,0,.58.57h0A.57.57,0,0,0,80,67V63.24ZM59.46,53.9l0,8.35-8.57-4.8,0-8.35Zm-9.18,4.53,8.56,4.81-8.5,4.81-8.56-4.81Zm10.32,5.8L69.16,69l0,8.35-8.57-4.81,0-8.35Zm9.14,3.82-8.56-4.81,8.5-4.81,8.56,4.81ZM60,43.31l8.56,4.8L64,50.7a.55.55,0,0,0-.21.78.59.59,0,0,0,.8.2l4.57-2.58,0,8.34-8.49,4.8,0-8.34L62.18,53a.56.56,0,0,0,.21-.78.59.59,0,0,0-.8-.21L60,52.92l-8.56-4.81L60,43.3ZM41.2,64.22,49.76,69l0,8.35-8.56-4.81,0-8.35Z"/>
</svg>
