<svg xmlns="http://www.w3.org/2000/svg" width="21" height="20" viewBox="0 0 21 20">
    <g fill="none" fill-rule="evenodd">
        <g fill="#0D0D0D" fill-rule="nonzero">
            <g>
                <g>
                    <path d="M19.008 13.874c-2.84 0-5.13 2.29-5.13 5.13 0 2.839 2.29 5.129 5.13 5.129s5.13-2.29 5.13-5.13c0-2.839-2.29-5.13-5.13-5.13zm0 8.464c-1.835 0-3.335-1.495-3.335-3.335 0-1.839 1.496-3.335 3.335-3.335 1.84 0 3.335 1.496 3.335 3.335 0 1.84-1.5 3.335-3.335 3.335zm6.536-8.674c0 .665-.536 1.197-1.197 1.197-.665 0-1.196-.536-1.196-1.197 0-.66.535-1.196 1.196-1.196.66 0 1.197.535 1.197 1.196zm3.397 1.214c-.076-1.602-.442-3.022-1.616-4.192-1.17-1.17-2.59-1.535-4.192-1.616-1.652-.093-6.603-.093-8.255 0-1.598.076-3.018.442-4.192 1.612-1.174 1.17-1.535 2.59-1.616 4.192-.093 1.652-.093 6.603 0 8.254.076 1.603.442 3.023 1.616 4.192 1.175 1.17 2.59 1.536 4.192 1.616 1.652.094 6.603.094 8.255 0 1.602-.076 3.022-.442 4.192-1.616 1.17-1.17 1.535-2.589 1.616-4.192.094-1.651.094-6.598 0-8.25zm-2.134 10.023c-.348.875-1.022 1.549-1.902 1.901-1.317.523-4.442.402-5.897.402-1.456 0-4.585.116-5.897-.402-.876-.348-1.55-1.022-1.902-1.901-.523-1.317-.402-4.442-.402-5.898 0-1.455-.116-4.585.402-5.897.348-.875 1.022-1.55 1.902-1.902 1.316-.522 4.441-.402 5.897-.402 1.455 0 4.585-.116 5.897.402.875.348 1.55 1.023 1.902 1.902.522 1.317.402 4.442.402 5.897 0 1.456.12 4.585-.402 5.898z" transform="translate(-161 -4023) translate(0 3720) translate(152 294)"/>
                </g>
            </g>
        </g>
    </g>
</svg>
